<svg xmlns="http://www.w3.org/2000/svg" version="1.1" viewBox="0 0 256 256"><path d="M0 0 C84.48 0 168.96 0 256 0 C256 84.48 256 168.96 256 256 C171.52 256 87.04 256 0 256 C0 171.52 0 87.04 0 0 Z " fill="#F9FEFE" transform="translate(0,0)"></path><path d="M0 0 C7.98967458 7.98967458 10.99519495 19.56600885 11.25 30.6875 C11.18045072 34.84886501 10.45684312 38.0847341 9 42 C8.56932556 45.58895367 8.40540404 47.22245143 10.625 50.125 C13.00092409 52.0658743 13.00092409 52.0658743 15.75 53.75 C29.92651626 63.56451126 35.85420249 77.64896209 39 94 C39.18691406 94.90105469 39.37382813 95.80210937 39.56640625 96.73046875 C40.37057722 102.79435255 40.40517896 108.92045818 40.60546875 115.02929688 C40.66154297 116.54040039 40.66154297 116.54040039 40.71875 118.08203125 C40.74904297 119.00218018 40.77933594 119.9223291 40.81054688 120.87036133 C40.76891416 122.98280361 40.76891416 122.98280361 42 124 C45.88942833 124.55563262 47.81572069 124.09735511 51.3125 122.25 C60.82441761 114.82144488 69.11172974 101.43608901 73 90 C72.48823509 86.68735956 71.06955813 83.84618178 69.6875 80.8125 C63.02749739 64.76266814 60.50950433 47.17068004 64 30 C64.12026311 26.63263286 64.12851831 23.61403194 63.4375 20.3125 C62.96898535 17.83606542 63.21105244 16.36684269 64 14 C67 15 67 15 68.125 17.1875 C70.88559579 21.32839369 74.80247833 23.43924779 79 26 C78.84015625 26.82113281 78.6803125 27.64226562 78.515625 28.48828125 C76.98007396 38.94631448 77.68565622 49.66084172 79.3125 60.0625 C79.48894043 61.20271606 79.48894043 61.20271606 79.66894531 62.3659668 C81.13741246 70.94861269 83.08101373 79.20769626 90 85 C93.21904846 86.97330288 96.50476725 88.57739764 100 90 C100.88945313 90.36996094 101.77890625 90.73992187 102.6953125 91.12109375 C107.13549283 92.30199277 111.30160508 92.29077321 115.875 92.25 C116.73480469 92.25773437 117.59460938 92.26546875 118.48046875 92.2734375 C122.47246718 92.26132218 126.10051753 92.09658088 129.953125 91.01171875 C139.36312568 88.37483743 153.17218239 87.91046369 162.0625 92.1875 C165.50657537 94.37748271 168.34121602 96.9123799 171 100 C172.04703565 101.25676839 172.04703565 101.25676839 174.375 101.25 C176.97877064 101.22606591 176.97877064 101.22606591 178.6328125 99.81640625 C180.98453483 96.69197516 180.52497862 93.50962234 180.41015625 89.73046875 C179.74869656 85.32703708 178.39566661 83.88992903 175 81 C171.36619199 79.04333415 167.93185367 77.94746307 163.91796875 77.1640625 C158.58473049 76.00044688 153.624223 74.14368567 148.5625 72.125 C147.21768555 71.61646484 147.21768555 71.61646484 145.84570312 71.09765625 C144.56276367 70.58912109 144.56276367 70.58912109 143.25390625 70.0703125 C142.48377197 69.76883301 141.7136377 69.46735352 140.92016602 69.15673828 C138.59930761 67.75861659 137.97576894 66.48631248 137 64 C139.38743371 63.16146064 140.60867234 62.86404931 143.03515625 63.70703125 C143.70417969 64.07183594 144.37320313 64.43664062 145.0625 64.8125 C145.73410156 65.16957031 146.40570313 65.52664062 147.09765625 65.89453125 C148.77016168 66.86643892 150.39048716 67.92699144 152 69 C153.91543894 69.07168559 155.83334019 69.08395515 157.75 69.0625 C166.10393183 69.5473264 171.57954528 73.50648259 178.36816406 77.9609375 C193.17870827 87.39146954 212.79956605 90.291742 229.9375 87.31640625 C240.36656484 84.56048013 247.76763724 79.8603023 256 73 C256 104.68 256 136.36 256 169 C171.52 169 87.04 169 0 169 C0 113.23 0 57.46 0 0 Z " fill="#FAFEFE" transform="translate(0,87)"></path><path d="M0 0 C3.93166696 2.17776348 7.42531095 4.35255807 8.9375 8.6875 C9.74655981 11.13547122 9.74655981 11.13547122 11.82421875 11.765625 C13.39582433 12.22456585 14.96881459 12.67878462 16.54296875 13.12890625 C21.67627469 14.94882235 25.97281206 18.03122311 28.5 22.875 C28.665 23.57625 28.83 24.2775 29 25 C25.48860694 26.17046435 22.71594451 25.9899813 19.05859375 25.83984375 C16.77335637 25.79322354 16.77335637 25.79322354 15 28 C14.58333333 31.5 14.58333333 31.5 15 35 C18.22740403 37.15160269 19.08250368 37.24003662 22.796875 37.23828125 C24.22435059 37.25689209 24.22435059 37.25689209 25.68066406 37.27587891 C26.69354492 37.28796387 27.70642578 37.30004883 28.75 37.3125 C45.15199916 37.78950993 58.82432591 42.25264642 71.125 53.5625 C83.86797283 67.14279342 90.61660242 83.974877 90.27734375 102.5859375 C89.64974155 116.69293612 84.70826622 127.66291875 74.7109375 137.58984375 C72.90572958 139.07769776 71.12603745 140.03910535 69 141 C82.03436448 141.17501298 82.03436448 141.17501298 95 140 C87.34377009 150.07398672 77.39002794 154.8091559 65 157 C43.677085 159.07153291 24.05530486 152.35651545 6.546875 140.3125 C3.4466143 138.71481964 1.22177565 138.66692966 -2.25 138.625 C-7.82795197 138.33474458 -11.38306185 137.25825532 -16 134.15625 C-18.31342895 132.81879889 -20.37344294 132.40127955 -23 132 C-22.3376913 135.11897892 -22.3376913 135.11897892 -19.93383789 136.13500977 C-19.03914795 136.48362061 -18.14445801 136.83223145 -17.22265625 137.19140625 C-15.73862305 137.77245117 -15.73862305 137.77245117 -14.22460938 138.36523438 C-13.18111328 138.76033203 -12.13761719 139.15542969 -11.0625 139.5625 C-10.05380859 139.96146484 -9.04511719 140.36042969 -8.00585938 140.77148438 C-3.20258197 142.6241329 1.38991017 144.17609199 6.46875 145.05859375 C10.35548096 145.74910996 12.68385985 146.66342766 15.5625 149.5 C16.20316406 150.1084375 16.84382813 150.716875 17.50390625 151.34375 C20.77263391 154.96239368 20.33029677 158.67763275 20.28125 163.35546875 C20 166 20 166 18.3125 168.6875 C15.4604324 170.30624107 14.22162962 170.70718699 11 170 C8.5625 167.75 8.5625 167.75 6 165 C0.83439144 161.23341043 -3.55188768 158.75165002 -10.01953125 158.734375 C-11.43008789 158.73050781 -11.43008789 158.73050781 -12.86914062 158.7265625 C-14.32610352 158.73816406 -14.32610352 158.73816406 -15.8125 158.75 C-17.25206055 158.73839844 -17.25206055 158.73839844 -18.72070312 158.7265625 C-23.76915063 158.74034666 -28.15083367 159.15758704 -32.99584961 160.53710938 C-43.16264078 162.8852926 -55.9661811 162.29868224 -65 157 C-65.7115625 156.63777344 -66.423125 156.27554688 -67.15625 155.90234375 C-73.56214149 152.37671317 -77.83581438 147.86962103 -79.96484375 140.79296875 C-80.75939167 137.20762069 -81.40019956 133.62263575 -82 130 C-82.20496094 129.030625 -82.40992187 128.06125 -82.62109375 127.0625 C-84.76073396 116.43807962 -85.11574603 104.66336001 -83 94 C-83.556875 93.72929688 -84.11375 93.45859375 -84.6875 93.1796875 C-90.26510155 90.03286501 -93.3537145 86.54301747 -96.4375 81.0625 C-96.9315332 80.18537354 -96.9315332 80.18537354 -97.43554688 79.29052734 C-101.93059914 70.8564392 -103.9723968 60.98889733 -101.32421875 51.60546875 C-100.5 49.6875 -100.5 49.6875 -99 47 C-95.31701137 48.30063585 -92.72048125 49.85559183 -89.75 52.375 C-85.38929568 55.87378956 -79.83383424 60 -74 60 C-74.72445312 59.62488281 -75.44890625 59.24976563 -76.1953125 58.86328125 C-81.60698446 55.99870289 -86.59516241 53.28578793 -91 49 C-91 48.34 -91 47.68 -91 47 C-89.989375 46.175 -88.97875 45.35 -87.9375 44.5 C-84.85834689 41.97113731 -82.75687822 39.38440435 -80.5625 36.0625 C-75.46062466 28.50627038 -69.02087189 22.36126271 -60 20 C-53.38256274 19.31752279 -47.26246519 19.63680559 -41 22 C-40.29359375 22.23332031 -39.5871875 22.46664062 -38.859375 22.70703125 C-30.02414798 25.99770254 -25.30610167 32.71102138 -20.5625 40.5625 C-15.18810097 49.17593415 -8.83863251 53.78264727 0.1875 58.0625 C6.08010669 60.86904841 10.66197771 63.15561285 14 69 C14.47050781 69.81597656 14.94101563 70.63195312 15.42578125 71.47265625 C19.05288296 78.28635895 21.81054005 85.41330234 24.37670898 92.6809082 C26.43864485 98.29330362 28.93649467 102.75342942 33.875 106.375 C37.135388 107.33393765 39.61976797 107.41511621 43 107 C47.60251306 103.86192291 49.14428816 100.02923495 50.48828125 94.81640625 C51.69644076 88.16691768 52.39378835 81.61955979 48.9375 75.5625 C41.30633198 65.35950187 28.42628945 62.7383909 16.625 59.9375 C6.42230263 57.47652966 0.68452723 55.08737571 -5 46 C-6.29060033 43.41879934 -6.13272333 41.50580171 -6.125 38.625 C-6.12886719 37.19027344 -6.12886719 37.19027344 -6.1328125 35.7265625 C-6 33 -6 33 -5.5078125 31.10546875 C-3.56417158 23.04683446 -4.27083024 14.30295744 -8 7 C-8.1875 3.5625 -8.1875 3.5625 -8 1 C-5.02536663 -0.48731668 -3.32721157 -0.4313052 0 0 Z " fill="#0FC5B9" transform="translate(161,19)"></path><path d="M0 0 C-0.495 1.134375 -0.99 2.26875 -1.5 3.4375 C-6.0962708 17.69486428 -2.5130673 30.12121986 4 43 C4.66 43.99 5.32 44.98 6 46 C6.17497613 49.14957041 6.22947641 52.01416932 5.51171875 55.09765625 C2.46069589 72.40231265 4.89035537 92.99506983 14.1796875 108.125 C15.2466622 110.56379932 14.88450909 111.5196306 14 114 C13.76925781 114.78632813 13.53851563 115.57265625 13.30078125 116.3828125 C10.66659126 123.69190883 6.79504007 129.38192018 2.0625 135.5 C1.16688354 136.66619873 1.16688354 136.66619873 0.25317383 137.85595703 C-7.49635582 147.59573336 -7.49635582 147.59573336 -14.25 148.375 C-17 148 -17 148 -19 146 C-19.25537109 143.96313477 -19.25537109 143.96313477 -19.2734375 141.44140625 C-19.29100098 140.5073999 -19.30856445 139.57339355 -19.32666016 138.61108398 C-19.35058838 137.10203491 -19.35058838 137.10203491 -19.375 135.5625 C-20.00581109 115.65155389 -23.29081856 97.12215685 -37.58203125 82.19140625 C-40.84824455 79.23123556 -44.32543781 76.75403992 -48.03125 74.375 C-50 73 -50 73 -51 71 C-50.9140625 68.94140625 -50.9140625 68.94140625 -50.625 66.5625 C-50.53476562 65.78003906 -50.44453125 64.99757813 -50.3515625 64.19140625 C-50 62 -50 62 -49 59 C-47.67940559 46.9631067 -50.9249455 34.86551225 -57.92578125 25.05078125 C-59 23 -59 23 -58.890625 20.8359375 C-57.51769047 18.00576544 -54.99039037 17.56570203 -52.25390625 16.3125 C-46.3760908 12.88971665 -42.44872975 6.82729226 -38.875 1.1875 C-35.96423653 -3.34474856 -33.18347481 -5.72661008 -28.125 -7.75 C-17.87304273 -8.95611262 -8.21139157 -6.38663788 0 0 Z " fill="#0FC5B9" transform="translate(59,64)"></path><path d="M0 0 C3.55518589 1.69858881 6.77747748 3.73952491 10 6 C9.625 7.9375 9.625 7.9375 9 10 C8.01 10.495 8.01 10.495 7 11 C6.67 11.99 6.34 12.98 6 14 C0.88268133 15.67636301 -3.58035067 16.33181527 -9 16 C-10 15 -10 15 -10.0625 12.4375 C-10.041875 11.633125 -10.02125 10.82875 -10 10 C-10.55429688 10.2165625 -11.10859375 10.433125 -11.6796875 10.65625 C-12.40414062 10.9346875 -13.12859375 11.213125 -13.875 11.5 C-14.59429687 11.7784375 -15.31359375 12.056875 -16.0546875 12.34375 C-18 13 -18 13 -20 13 C-20 11 -20 11 -18.8125 9.75 C-18.214375 9.1725 -17.61625 8.595 -17 8 C-16.175 6.989375 -15.35 5.97875 -14.5 4.9375 C-10.10836599 -0.22266996 -6.49886827 -1.18881737 0 0 Z " fill="#17C5B8" transform="translate(153,101)"></path><path d="M0 0 C3.63808816 0.44247018 5.98747032 1.47595662 9 3.5 C12.8954562 5.78841981 15.62905586 6.22790691 20.125 6.25 C28.23566079 6.5451062 33.69304284 10.44615967 40.22558594 14.84228516 C43.07387013 16.70064559 46.03183199 18.34131788 49 20 C48.1875 21.9375 48.1875 21.9375 47 24 C46.01 24.33 45.02 24.66 44 25 C44 27.64 44 30.28 44 33 C43.67 33 43.34 33 43 33 C42.98582031 32.41992188 42.97164062 31.83984375 42.95703125 31.2421875 C42.59683584 25.34277072 41.52949133 22.13562252 37 18 C33.36619199 16.04333415 29.93185367 14.94746307 25.91796875 14.1640625 C20.58473049 13.00044688 15.624223 11.14368567 10.5625 9.125 C9.66595703 8.78597656 8.76941406 8.44695312 7.84570312 8.09765625 C6.99041016 7.75863281 6.13511719 7.41960937 5.25390625 7.0703125 C4.09870483 6.61809326 4.09870483 6.61809326 2.92016602 6.15673828 C0.59930761 4.75861659 -0.02423106 3.48631248 -1 1 C-0.67 0.67 -0.34 0.34 0 0 Z " fill="#E8FAF9" transform="translate(138,150)"></path><path d="M0 0 C0.99 0.66 1.98 1.32 3 2 C2.67 2.886875 2.34 3.77375 2 4.6875 C-0.50584944 13.57515305 0.46410234 22.59583745 4 31 C6.18181818 36.2987013 6.18181818 36.2987013 5.125 40.375 C4.75375 41.24125 4.3825 42.1075 4 43 C-3.13034193 34.19685057 -4.92940353 23.9290482 -4.44140625 12.92578125 C-3.86939951 7.83846467 -2.56097032 4.40166773 0 0 Z " fill="#E7F9F8" transform="translate(59,64)"></path><path d="M0 0 C4.70222425 1.09892999 8.54617684 3.83090543 12.45703125 6.57421875 C10.625 7.1640625 10.625 7.1640625 8.45703125 7.57421875 C7.57015625 7.09984375 6.68328125 6.62546875 5.76953125 6.13671875 C0.70659468 3.74854112 -4.25508084 3.81158945 -9.54296875 5.57421875 C-9.85234375 6.39921875 -10.16171875 7.22421875 -10.48046875 8.07421875 C-11.00640625 9.31171875 -11.00640625 9.31171875 -11.54296875 10.57421875 C-13.66796875 11.38671875 -13.66796875 11.38671875 -15.54296875 11.57421875 C-12.4720316 4.23809112 -8.2230238 -0.40624819 0 0 Z " fill="#C8F3F0" transform="translate(150.54296875,100.42578125)"></path><path d="M0 0 C7.78706907 0.89253782 7.78706907 0.89253782 10.9765625 4.08203125 C6.00663056 6.51628363 2.63050881 7.42819123 -3.0234375 7.08203125 C-3.6484375 4.70703125 -3.6484375 4.70703125 -4.0234375 2.08203125 C-2.0234375 0.08203125 -2.0234375 0.08203125 0 0 Z " fill="#EBFBFB" transform="translate(147.0234375,109.91796875)"></path><path d="M0 0 C3.77071576 0.46238483 6.54881275 1.66274175 9.8125 3.5625 C10.60269531 4.01753906 11.39289063 4.47257813 12.20703125 4.94140625 C12.79871094 5.29074219 13.39039063 5.64007813 14 6 C11.66781658 7.45894579 10.47941306 8.0670851 7.7109375 7.6796875 C6.94007813 7.41414062 6.16921875 7.14859375 5.375 6.875 C4.59898437 6.62492188 3.82296875 6.37484375 3.0234375 6.1171875 C0.57621849 4.76602025 -0.00962074 3.56646668 -1 1 C-0.67 0.67 -0.34 0.34 0 0 Z " fill="#E3F9F8" transform="translate(138,150)"></path><path d="M0 0 C0.99 0 1.98 0 3 0 C3 0.66 3 1.32 3 2 C3.886875 1.79375 4.77375 1.5875 5.6875 1.375 C9.27092006 0.9693298 10.92564307 1.15538584 14 3 C14.33 4.32 14.66 5.64 15 7 C8.4 5.68 1.8 4.36 -5 3 C-3.68 2.34 -2.36 1.68 -1 1 C-0.67 0.67 -0.34 0.34 0 0 Z " fill="#19C5B7" transform="translate(177,75)"></path><path d="M0 0 C0.68707555 2.49064888 1 4.37886292 1 7 C3.64 7 6.28 7 9 7 C9 7.33 9 7.66 9 8 C3.06 8 -2.88 8 -9 8 C-6.11111446 5.11111446 -3.15095802 2.5907877 0 0 Z " fill="#D9F7F6" transform="translate(238,153)"></path><path d="M0 0 C1.6124385 0.85768005 3.21779998 1.73174893 4.78125 2.67578125 C7.4613907 4.27537227 10.19413094 5.76165158 12.9375 7.25 C13.89527344 7.77078125 14.85304688 8.2915625 15.83984375 8.828125 C16.90912109 9.40820312 16.90912109 9.40820312 18 10 C15.14868537 11.17205481 14.07069477 11.02641449 11.125 9.92578125 C10.09375 9.39339844 9.0625 8.86101562 8 8.3125 C6.96875 7.79300781 5.9375 7.27351563 4.875 6.73828125 C2.12234566 5.07397258 0.15076855 3.37308357 -2 1 C-1.34 0.67 -0.68 0.34 0 0 Z " fill="#C6F3F1" transform="translate(71,69)"></path><path d="M0 0 C0 0.99 0 1.98 0 3 C0.9793879 4.02019573 1.97895449 5.02149805 3 6 C3 6.66 3 7.32 3 8 C3.66 8.66 4.32 9.32 5 10 C4.34 10.66 3.68 11.32 3 12 C1.66102417 11.04956626 0.32894573 10.08940853 -1 9.125 C-1.7425 8.59132813 -2.485 8.05765625 -3.25 7.5078125 C-3.8275 7.01023437 -4.405 6.51265625 -5 6 C-5 5.34 -5 4.68 -5 4 C-3.37373596 2.61767557 -1.7074998 1.28062485 0 0 Z " fill="#21C3B9" transform="translate(75,62)"></path><path d="M0 0 C0.66 0 1.32 0 2 0 C2.66 1.65 3.32 3.3 4 5 C1.05992434 5.98002522 -0.42455392 6.00049158 -3.4375 5.8125 C-6.94668271 5.74963191 -7.68096404 5.75099633 -10.5625 8 C-11.036875 8.66 -11.51125 9.32 -12 10 C-12.33 8.35 -12.66 6.7 -13 5 C-12.34 5 -11.68 5 -11 5 C-11 4.34 -11 3.68 -11 3 C-7.04 3 -3.08 3 1 3 C0.67 2.01 0.34 1.02 0 0 Z " fill="#14C2B4" transform="translate(186,39)"></path><path d="M0 0 C0.33 0 0.66 0 1 0 C1.99 5.94 2.98 11.88 4 18 C3.34 17.67 2.68 17.34 2 17 C2 16.01 2 15.02 2 14 C1.01 14.33 0.02 14.66 -1 15 C-1.09038099 9.84828377 -0.84681133 5.08086796 0 0 Z " fill="#D6F4F3" transform="translate(78,143)"></path><path d="M0 0 C0 4.66991743 -0.84566154 7.46714092 -4 11 C-4.66 11 -5.32 11 -6 11 C-6.71484375 9.234375 -6.71484375 9.234375 -7 7 C-5.56640625 5.078125 -5.56640625 5.078125 -3.5625 3.25 C-2.90378906 2.63640625 -2.24507813 2.0228125 -1.56640625 1.390625 C-1.04949219 0.93171875 -0.53257813 0.4728125 0 0 Z " fill="#1CC3B7" transform="translate(89,45)"></path><path d="M0 0 C1.32 0.99 2.64 1.98 4 3 C4.13117541 5.89480289 4.06318053 8.34153404 3.75 11.1875 C3.65138672 12.31188477 3.65138672 12.31188477 3.55078125 13.45898438 C3.38592263 15.30775601 3.19541184 17.15420773 3 19 C2.67 19 2.34 19 2 19 C1.34 12.73 0.68 6.46 0 0 Z " fill="#17BFB3" transform="translate(9,104)"></path><path d="M0 0 C0.33 0.99 0.66 1.98 1 3 C-0.36328125 5.0078125 -0.36328125 5.0078125 -2.3125 7.125 C-2.94800781 7.82882813 -3.58351563 8.53265625 -4.23828125 9.2578125 C-6 11 -6 11 -8 12 C-8.33 11.01 -8.66 10.02 -9 9 C-8.43410156 8.51789063 -7.86820312 8.03578125 -7.28515625 7.5390625 C-6.55167969 6.90742187 -5.81820313 6.27578125 -5.0625 5.625 C-4.33160156 4.99851562 -3.60070312 4.37203125 -2.84765625 3.7265625 C-0.91619094 2.12252286 -0.91619094 2.12252286 0 0 Z " fill="#2FC5BA" transform="translate(15,72)"></path><path d="M0 0 C0.33 0.99 0.66 1.98 1 3 C-0.4375 5.6875 -0.4375 5.6875 -2 8 C-3.32 7.34 -4.64 6.68 -6 6 C-3.375 1.125 -3.375 1.125 0 0 Z " fill="#E7FAF8" transform="translate(72,185)"></path><path d="M0 0 C1.80806372 2.71209558 3.06810009 4.89366697 4 8 C3.01 9.485 3.01 9.485 2 11 C-0.7865517 8.2134483 -0.65662895 5.84575573 -1 2 C-0.67 1.34 -0.34 0.68 0 0 Z " fill="#26C6BE" transform="translate(184,111)"></path><path d="M0 0 C-3.465 2.97 -3.465 2.97 -7 6 C-7 4.68 -7 3.36 -7 2 C-7.66 1.34 -8.32 0.68 -9 0 C-3.375 -1.125 -3.375 -1.125 0 0 Z " fill="#42CABD" transform="translate(256,160)"></path><path d="M0 0 C1.11375 0.2475 1.11375 0.2475 2.25 0.5 C5.19006578 1.11925696 5.19006578 1.11925696 9 1 C9.33 1.66 9.66 2.32 10 3 C9.67 3.66 9.34 4.32 9 5 C5.54074837 3.7508258 2.85306797 2.32472205 0 0 Z " fill="#24C6B7" transform="translate(143,151)"></path><path d="M0 0 C6.4 -0.49230769 6.4 -0.49230769 9.4375 2 C10.2109375 2.99 10.2109375 2.99 11 4 C7.37 3.34 3.74 2.68 0 2 C0 1.34 0 0.68 0 0 Z " fill="#33C6BB" transform="translate(145,108)"></path><path d="M0 0 C0.12375 0.53625 0.2475 1.0725 0.375 1.625 C1.12206016 4.4638286 2.05303364 7.22223202 3 10 C1.68 9.34 0.36 8.68 -1 8 C-1.04241723 5.66705225 -1.04092937 3.33297433 -1 1 C-0.67 0.67 -0.34 0.34 0 0 Z " fill="#E1FAF9" transform="translate(176,46)"></path><path d="M0 0 C1.98 0.99 3.96 1.98 6 3 C5.01 3.66 4.02 4.32 3 5 C-0.6875 4.125 -0.6875 4.125 -4 3 C-2.68 2.67 -1.36 2.34 0 2 C0 1.34 0 0.68 0 0 Z " fill="#D8F7F6" transform="translate(172,162)"></path><path d="M0 0 C2.97550031 3.0684847 3.96474513 4.46236331 4.25 8.8125 C4.1675 9.864375 4.085 10.91625 4 12 C3.33333333 10.66666667 2.66666667 9.33333333 2 8 C1.62875 7.34 1.2575 6.68 0.875 6 C0 4 0 4 0 0 Z " fill="#28C6B9" transform="translate(61,105)"></path><path d="M0 0 C0.66 0 1.32 0 2 0 C2.66 1.65 3.32 3.3 4 5 C0.30581799 6.231394 -2.2056261 5.64432764 -6 5 C-6 4.67 -6 4.34 -6 4 C-2.535 3.505 -2.535 3.505 1 3 C0.67 2.01 0.34 1.02 0 0 Z " fill="#54CEC3" transform="translate(186,39)"></path><path d="M0 0 C4.31392226 0.4793247 6.16569547 1.7457985 9 5 C4.68607774 4.5206753 2.83430453 3.2542015 0 0 Z " fill="#E0FAFA" transform="translate(154,103)"></path><path d="M0 0 C0.99 0.33 1.98 0.66 3 1 C2.67 3.31 2.34 5.62 2 8 C1.34 7.67 0.68 7.34 0 7 C0 4.69 0 2.38 0 0 Z " fill="#F8FEFC" transform="translate(55,80)"></path><path d="M0 0 C0.763125 0.20625 1.52625 0.4125 2.3125 0.625 C1.9825 1.285 1.6525 1.945 1.3125 2.625 C0.6525 2.625 -0.0075 2.625 -0.6875 2.625 C-1.0175 3.285 -1.3475 3.945 -1.6875 4.625 C-3.0075 3.635 -4.3275 2.645 -5.6875 1.625 C-2.6875 -0.375 -2.6875 -0.375 0 0 Z " fill="#E2F8F7" transform="translate(167.6875,75.375)"></path><path d="M0 0 C1.32 0.66 2.64 1.32 4 2 C2.12356239 3.87643761 -0.49805701 3.17984987 -2.9921875 3.23046875 C-5 3 -5 3 -8 1 C-5.36 1.33 -2.72 1.66 0 2 C0 1.34 0 0.68 0 0 Z " fill="#1CC2BD" transform="translate(49,59)"></path><path d="M0 0 C1.65 0.33 3.3 0.66 5 1 C4.34 2.32 3.68 3.64 3 5 C1.68 4.34 0.36 3.68 -1 3 C-0.67 2.01 -0.34 1.02 0 0 Z " fill="#CBF3F0" transform="translate(138,150)"></path><path d="M0 0 C1.32 0.33 2.64 0.66 4 1 C3.2884375 1.6496875 3.2884375 1.6496875 2.5625 2.3125 C0.76313043 4.02309613 0.76313043 4.02309613 0 7 C-0.66 6.67 -1.32 6.34 -2 6 C-2 3 -2 3 0 0 Z " fill="#35CAC2" transform="translate(159,108)"></path><path d="M0 0 C3.53600465 1.91135386 5.78972846 3.62642766 8 7 C7.01 7.495 7.01 7.495 6 8 C6 7.34 6 6.68 6 6 C5.34 6 4.68 6 4 6 C4 5.34 4 4.68 4 4 C2.68 3.34 1.36 2.68 0 2 C0 1.34 0 0.68 0 0 Z " fill="#20C3B4" transform="translate(126,44)"></path><path d="M0 0 C0.99 0 1.98 0 3 0 C3 1.32 3 2.64 3 4 C0.36 3.67 -2.28 3.34 -5 3 C-4.360625 2.690625 -3.72125 2.38125 -3.0625 2.0625 C-1.06389179 1.1654837 -1.06389179 1.1654837 0 0 Z " fill="#3ACDC3" transform="translate(177,75)"></path></svg>